<svg width="31" height="31" viewBox="0 0 31 31" fill="none" xmlns="http://www.w3.org/2000/svg">
<path d="M12.3427 24.6975C5.52154 24.6975 0 19.165 0 12.3488C0 5.53251 5.52982 0 12.3427 0C19.1557 0 24.6855 5.53251 24.6855 12.3488C24.6855 19.165 19.164 24.6892 12.3427 24.6975ZM12.3427 2.61718C6.9785 2.61718 2.62418 6.97362 2.62418 12.3405C2.62418 17.7073 6.9785 22.0638 12.3427 22.0638C17.707 22.0638 22.0613 17.7073 22.0613 12.3405C22.0613 6.97362 17.707 2.62546 12.3427 2.61718Z" fill="#717171"/>
<path d="M29.6858 31C29.3381 31 28.9987 30.8592 28.7587 30.619L19.2222 21.0779C18.709 20.5644 18.709 19.7279 19.2222 19.2144C19.7355 18.7009 20.5716 18.7009 21.0848 19.2144L30.6212 28.7555C31.1262 29.269 31.1262 30.0972 30.6212 30.619C30.3646 30.8675 30.0335 31 29.6858 31Z" fill="#717171"/>
</svg>
